#!OML:ASF H:\Martial Arts Walks\Project 1\Capture day 1\Session 1\male.ASF
:FULLY-SPECIFIED
:DEGREES
1911
root -4.23552 14.8947 -11.5245 -239.882 76.8552 -239.365
lowerback 25.8465 3.87926 1.17629
upperback 4.12504 5.42303 -3.44824
thorax -9.2576 2.65958 -6.34199
lowerneck -1.20509 11.9871 4.08793
upperneck 5.20676 16.4377 -7.72188
head 2.99185 8.1173 -2.59808
rclavicle 9.93923e-015 -1.43125e-014
rhumerus -24.7654 52.9335 -80.7359
rradius 109.177
rwrist 5.76664
rhand -5.24949 -22.1824
rfingers 7.12502
rthumb 20.5537 -51.1143
lclavicle 9.93923e-015 -1.43125e-014
lhumerus -27.8262 10.3407 60.5643
lradius 110.02
lwrist 35.2236
lhand -31.7374 11.6859
lfingers 7.12502
lthumb -4.99517 41.607
rfemur -33.5842 -14.1146 4.15655
rtibia 76.9348
rfoot -33.3799 -11.6607
rtoes -14.1931
lfemur -47.2844 14.4217 5.11678
ltibia 66.0277
lfoot 19.1137 -9.21595
ltoes 1.16852
1912
root -4.204 14.841 -11.6304 -240.572 77.2814 -239.994
lowerback 25.5323 3.93688 1.17589
upperback 3.99554 5.4876 -3.39107
thorax -9.24083 2.68287 -6.27462
lowerneck -1.06812 12.0839 4.19475
upperneck 5.39685 16.5802 -7.65485
head 3.04528 8.19143 -2.58862
rclavicle 8.38871e-014 -2.38542e-014
rhumerus -25.2311 52.9603 -81.0696
rradius 109.359
rwrist 5.7915
rhand -5.55585 -21.7905
rfingers 7.12502
rthumb 20.2593 -50.754
lclavicle 8.38871e-014 -2.38542e-014
lhumerus -27.9018 10.5327 60.1826
lradius 110.072
lwrist 35.4881
lhand -31.669 11.7674
lfingers 7.12502
lthumb -4.92913 41.69
rfemur -33.6445 -14.1211 3.94694
rtibia 77.3749
rfoot -33.7207 -11.3925
rtoes -14.8645
lfemur -45.2008 13.4249 5.7654
ltibia 64.0604
lfoot 19.6176 -9.53555
ltoes 2.20916
1913
root -4.17176 14.7817 -11.7378 -241.205 77.6651 -240.638
lowerback 25.1267 4.00012 1.0872
upperback 3.87249 5.53786 -3.32084
thorax -9.18007 2.70434 -6.12764
lowerneck -0.987645 12.193 3.4528
upperneck 5.44462 16.6853 -6.83958
head 2.88966 8.24619 -2.21111
rclavicle 9.74045e-015 -4.6118e-014
rhumerus -25.52 52.9112 -81.5185
rradius 109.293
rwrist 5.99346
rhand -6.04605 -22.2259
rfingers 7.12502
rthumb 19.7881 -51.2386
lclavicle 9.74045e-015 -4.6118e-014
lhumerus -27.9567 10.7826 59.8607
lradius 110.132
lwrist 35.6889
lhand -31.6892 11.7763
lfingers 7.12502
lthumb -4.94863 41.6985
rfemur -33.8089 -14.2591 3.7239
rtibia 77.8277
rfoot -33.8679 -11.6362
rtoes -16.8464
lfemur -43.3082 12.3775 6.36586
ltibia 62.1696
lfoot 20.1946 -9.78088
ltoes 3.65968
1914
root -4.14019 14.7294 -11.8445 -241.778 78.0518 -241.251
lowerback 24.7464 4.06665 1.06228
upperback 3.7176 5.60527 -3.28442
thorax -9.15596 2.72941 -6.06516
lowerneck -1.03789 12.2773 3.42305
upperneck 5.75029 16.8043 -6.60185
head 2.98113 8.30337 -2.1122
rclavicle 7.55382e-015 3.26007e-014
rhumerus -25.964 52.8934 -81.9061
rradius 109.422
rwrist 6.2871
rhand -6.66767 -21.8707
rfingers 7.12502
rthumb 19.1904 -50.9439
lclavicle 7.55382e-015 3.26007e-014
lhumerus -27.9442 10.9495 59.4412
lradius 110.132
lwrist 35.7824
lhand -31.6788 11.9583
lfingers 7.12502
lthumb -4.93863 41.8808
rfemur -33.9872 -14.2884 3.51894
rtibia 78.2495
rfoot -34.1104 -11.5395
rtoes -17.7438
lfemur -41.5152 11.3679 6.89638
ltibia 60.3428
lfoot 20.5393 -10.2222
ltoes 4.66035
1915
root -4.10753 14.6824 -11.953 -242.778 78.3928 -242.308
lowerback 24.3595 4.13895 0.924861
upperback 3.55075 5.64981 -3.26512
thorax -9.15214 2.7463 -5.95103
lowerneck -1.03663 12.4658 3.63068
upperneck 6.07756 17.0837 -6.63604
head 3.13469 8.44067 -2.12867
rclavicle 5.26779e-014 -2.14687e-014
rhumerus -26.3944 53.1337 -82.21
rradius 109.623
rwrist 6.5645
rhand -7.68177 -21.6996
rfingers 7.12502
rthumb 18.215 -50.8668
lclavicle 5.26779e-014 -2.14687e-014
lhumerus -28.0458 11.2162 59.0088
lradius 110.154
lwrist 35.7255
lhand -31.5921 11.894
lfingers 7.12502
lthumb -4.8549 41.8184
rfemur -34.1567 -14.0705 3.24867
rtibia 78.6437
rfoot -34.2887 -11.685
rtoes -18.7896
lfemur -39.745 10.3674 7.31118
ltibia 58.6203
lfoot 20.7101 -10.4012
ltoes 5.6484
1916
root -4.07598 14.6295 -12.0623 -243.69 78.7437 -243.305
lowerback 23.998 4.23919 0.803525
upperback 3.36688 5.73675 -3.22384
thorax -9.17668 2.78159 -5.83814
lowerneck -1.07947 12.512 3.61344
upperneck 6.31463 17.1598 -6.54402
head 3.21674 8.47617 -2.08211
rclavicle -1.68967e-014 -8.74653e-015
rhumerus -26.7986 53.1734 -82.5635
rradius 109.728
rwrist 7.04346
rhand -8.57389 -21.4346
rfingers 7.12502
rthumb 17.3566 -50.6796
lclavicle -1.68967e-014 -8.74653e-015
lhumerus -28.0897 11.4201 58.6158
lradius 110.148
lwrist 35.5763
lhand -31.4104 11.8763
lfingers 7.12502
lthumb -4.67945 41.8047
rfemur -34.3942 -13.9437 3.00122
rtibia 79.0643
rfoot -34.4584 -11.8089
rtoes -19.8034
lfemur -38.1437 9.41915 7.68741
ltibia 57.048
lfoot 20.6949 -10.4948
ltoes 6.39647
1917
root -4.04557 14.5743 -12.1757 -244.477 79.0479 -244.207
lowerback 23.6222 4.36065 0.709776
upperback 3.18562 5.85931 -3.19971
thorax -9.18221 2.83434 -5.76846
lowerneck -1.14402 12.4922 3.38606
upperneck 6.43412 17.1268 -6.27548
head 3.21408 8.45841 -1.95684
rclavicle 2.98177e-015 -4.77083e-014
rhumerus -27.217 53.0131 -83.107
rradius 109.686
rwrist 7.56729
rhand -9.55918 -21.435
rfingers 7.12502
rthumb 16.4081 -50.761
lclavicle 2.98177e-015 -4.77083e-014
lhumerus -28.0333 11.5318 58.3287
lradius 110.119
lwrist 35.2595
lhand -31.2537 11.9168
lfingers 7.12502
lthumb -4.52815 41.8484
rfemur -34.6778 -14.0099 2.69482
rtibia 79.5001
rfoot -34.6212 -11.9368
rtoes -21.0787
lfemur -36.7129 8.50381 7.95269
ltibia 55.6396
lfoot 20.6439 -10.3581
ltoes 7.09576
1918
root -4.01866 14.5195 -12.2898 -245.153 79.3378 -245.002
lowerback 23.3049 4.47317 0.609686
upperback 2.99317 5.96668 -3.21193
thorax -9.22863 2.8787 -5.73788
lowerneck -1.19844 12.5194 3.55591
upperneck 6.56149 17.1677 -6.26843
head 3.28721 8.47952 -1.96992
rclavicle -2.82274e-014 1.51076e-014
rhumerus -27.5536 52.9009 -83.4897
rradius 109.789
rwrist 7.95299
rhand -10.1211 -21.4159
rfingers 7.12502
rthumb 15.867 -50.7858
lclavicle -2.82274e-014 1.51076e-014
lhumerus -27.978 11.628 57.9482
lradius 110.109
lwrist 35.0101
lhand -31.1112 11.9374
lfingers 7.12502
lthumb -4.39055 41.8719
rfemur -34.9703 -13.992 2.38184
rtibia 79.9356
rfoot -34.8721 -11.7028
rtoes -21.3476
lfemur -35.4059 7.64104 8.16634
ltibia 54.4005
lfoot 20.5734 -10.025
ltoes 7.54477
1919
root -3.98984 14.4668 -12.4067 -245.85 79.6124 -245.821
lowerback 22.958 4.59659 0.548114
upperback 2.81657 6.10019 -3.23068
thorax -9.23397 2.93674 -5.73871
lowerneck -1.16802 12.5606 3.65598
upperneck 6.54344 17.217 -6.23509
head 3.28477 8.50788 -1.97435
rclavicle 4.01545e-014 -2.54444e-014
rhumerus -27.9604 52.8032 -83.9223
rradius 109.947
rwrist 8.12224
rhand -10.6167 -21.3755
rfingers 7.12502
rthumb 15.3897 -50.7827
lclavicle 4.01545e-014 -2.54444e-014
lhumerus -27.8593 11.6519 57.618
lradius 110.093
lwrist 34.797
lhand -31.0674 11.8501
lfingers 7.12502
lthumb -4.34825 41.7854
rfemur -35.2486 -13.9425 2.02607
rtibia 80.3607
rfoot -35.1534 -11.2898
rtoes -21.2617
lfemur -34.1917 6.81819 8.30508
ltibia 53.3738
lfoot 20.5738 -9.56597
ltoes 8.57386
1920
root -3.96178 14.4134 -12.5223 -246.657 79.9088 -246.702
lowerback 22.7088 4.74576 0.409766
upperback 2.63158 6.252 -3.19902
thorax -9.31271 3.00384 -5.65687
lowerneck -1.10091 12.6445 3.60873
upperneck 6.49709 17.3196 -6.11347
head 3.24348 8.56294 -1.92939
rclavicle 7.4743e-014 -2.38542e-014
rhumerus -28.4413 52.9313 -84.1284
rradius 110.35
rwrist 7.99129
rhand -11.0692 -21.153
rfingers 7.12502
rthumb 14.9538 -50.5932
lclavicle 7.4743e-014 -2.38542e-014
lhumerus -27.8505 11.6887 57.377
lradius 110.177
lwrist 34.6714
lhand -31.1265 11.9499
lfingers 7.12502
lthumb -4.4053 41.8841
rfemur -35.4394 -13.7593 1.71352
rtibia 80.773
rfoot -35.3621 -11.3873
rtoes -21.8916
lfemur -33.0389 6.14347 8.39645
ltibia 52.6256
lfoot 19.381 -9.2224
ltoes 5.06976
